<svg id="FilledOutline" height="512" viewBox="0 0 512 512" width="512" xmlns="http://www.w3.org/2000/svg"><path d="m40 24h448v320h-448z" fill="#ecaf4a"/><path d="m344 24h64v48h-64z" fill="#f9d28d"/><path d="m344 184h64v48h-64z" fill="#f9d28d"/><path d="m40 168h448v16h-448z" fill="#d69f44"/><path d="m40 328h448v16h-448z" fill="#d69f44"/><path d="m120 24h64v48h-64z" fill="#f9d28d"/><path d="m264 24h16v152h-16z" fill="#d69f44"/><path d="m24 128h288v352h-288z" fill="#ef5249"/><path d="m56 160h224v288h-224z" fill="#0093ba"/><path d="m224 128v36a12 12 0 0 1 -12 12h-88a12 12 0 0 1 -12-12v-36z" fill="#88bf40"/><path d="m408 432-40-40v-72a24 24 0 0 0 -24-24h-32v32l-20-20a16.971 16.971 0 0 0 -24 0 16.971 16.971 0 0 0 0 24l36 36a45.255 45.255 0 0 0 0 64l48 48z" fill="#f5be9a"/><path d="m488 16h-448a8 8 0 0 0 -8 8v80h16v-72h64v40a8 8 0 0 0 8 8h64a8 8 0 0 0 8-8v-40h64v72h16v-72h64v40a8 8 0 0 0 8 8h64a8 8 0 0 0 8-8v-40h64v144h-136a8 8 0 0 0 -8 8v48a8 8 0 0 0 8 8h64a8 8 0 0 0 8-8v-40h64v144h-88v16h96a8 8 0 0 0 8-8v-320a8 8 0 0 0 -8-8zm-312 48h-48v-32h48zm224 0h-48v-32h48zm0 160h-48v-32h48z"/><path d="m448 144h16v16h-16z"/><path d="m416 144h16v16h-16z"/><path d="m448 304h16v16h-16z"/><path d="m416 304h16v16h-16z"/><path d="m376 320a32.036 32.036 0 0 0 -32-32h-24v-160a8 8 0 0 0 -8-8h-288a8 8 0 0 0 -8 8v352a8 8 0 0 0 8 8h288a8 8 0 0 0 8-8v-20.687l26.343 26.344 11.314-11.314-48-48a37.3 37.3 0 0 1 0-52.686 8 8 0 0 0 0-11.314l-36-36a8.97 8.97 0 0 1 12.686-12.686l36 36 11.314-11.314-13.657-13.656v-20.687h24a16.019 16.019 0 0 1 16 16v72a8 8 0 0 0 2.343 5.657l40 40 11.314-11.314-37.657-37.656zm-256-184h96v28a4 4 0 0 1 -4 4h-88a4 4 0 0 1 -4-4zm177.657 166.343a24.971 24.971 0 1 0 -35.314 35.314l30.767 30.767a53.34 53.34 0 0 0 5.233 69.233l5.657 5.656v28.687h-272v-336h72v16h-48a8 8 0 0 0 -8 8v288a8 8 0 0 0 8 8h224v-16h-216v-272h40.4a20.034 20.034 0 0 0 19.6 16h88a20.034 20.034 0 0 0 19.6-16h40.4v112h16v-120a8 8 0 0 0 -8-8h-48v-16h72v172.687z"/><path d="m104 244.687-10.343-10.344-11.314 11.314 16 16a8 8 0 0 0 11.314 0l32-32-11.314-11.314z"/><path d="m104 308.687-10.343-10.344-11.314 11.314 16 16a8 8 0 0 0 11.314 0l32-32-11.314-11.314z"/><path d="m104 372.687-10.343-10.344-11.314 11.314 16 16a8 8 0 0 0 11.314 0l32-32-11.314-11.314z"/><path d="m160 216h88v16h-88z"/><path d="m160 248h72v16h-72z"/><path d="m160 280h88v16h-88z"/><path d="m160 312h72v16h-72z"/><path d="m160 344h88v16h-88z"/><path d="m160 376h72v16h-72z"/></svg>