<?xml version="1.0" encoding="iso-8859-1"?>
<!-- Generator: Adobe Illustrator 19.0.0, SVG Export Plug-In . SVG Version: 6.00 Build 0)  -->
<svg version="1.1" id="Capa_1" xmlns="http://www.w3.org/2000/svg" xmlns:xlink="http://www.w3.org/1999/xlink" x="0px" y="0px"
	 viewBox="0 0 496 496" style="enable-background:new 0 0 496 496;" xml:space="preserve">
<g>
	<path style="fill:#F9E0A6;" d="M104,360v16c0,8.84-7.16,16-16,16l0,0c-8.84,0-16-7.16-16-16v-16H104z"/>
	<path style="fill:#F9E0A6;" d="M136,360v16c0,8.84-7.16,16-16,16l0,0c-8.84,0-16-7.16-16-16v-16H136z"/>
	<path style="fill:#F9E0A6;" d="M168,360v16c0,8.84-7.16,16-16,16l0,0c-8.84,0-16-7.16-16-16v-16H168z"/>
	<path style="fill:#F9E0A6;" d="M200,360v16c0,8.84-7.16,16-16,16l0,0c-8.84,0-16-7.16-16-16v-16H200z"/>
</g>
<rect x="72" y="344" style="fill:#EABD8C;" width="128" height="32"/>
<rect x="8" y="136" style="fill:#92E0C0;" width="480" height="224"/>
<rect x="8" y="336" style="fill:#48C397;" width="480" height="24"/>
<g>
	<path style="fill:#F9E0A6;" d="M368,136v-16c0-8.84-7.16-16-16-16l0,0c-8.84,0-16,7.16-16,16v16H368z"/>
	<path style="fill:#F9E0A6;" d="M400,136v-16c0-8.84-7.16-16-16-16l0,0c-8.84,0-16,7.16-16,16v16H400z"/>
	<path style="fill:#F9E0A6;" d="M432,136v-16c0-8.84-7.16-16-16-16l0,0c-8.84,0-16,7.16-16,16v16H432z"/>
	<path style="fill:#F9E0A6;" d="M464,136v-16c0-8.84-7.16-16-16-16l0,0c-8.84,0-16,7.16-16,16v16H464z"/>
	<path style="fill:#F9E0A6;" d="M200,136h-96c0,17.672-14.328,32-32,32l0,0v64c0,8.84-7.16,16-16,16l0,0c-8.84,0-16-7.16-16-16
		V125.256c0-8.488,3.368-16.624,9.376-22.624L72,80V8h104v72l14.624,14.624c6,6,9.376,14.144,9.376,22.624V128V136z"/>
</g>
<circle style="fill:#FEA82F;" cx="248" cy="248" r="80"/>
<path style="fill:#FF8031;" d="M248,304c-40.096,0-73.2-29.528-79-68c-0.592,3.928-1,7.912-1,12c0,44.184,35.816,80,80,80
	s80-35.816,80-80c0-4.088-0.408-8.072-1-12C321.2,274.472,288.096,304,248,304z"/>
<path style="fill:#F9E0A6;" d="M464,360h-96c0-17.672-14.328-32-32-32l0,0v-64c0-8.84-7.16-16-16-16l0,0c-8.84,0-16,7.16-16,16
	v106.744c0,8.488,3.368,16.624,9.376,22.624L336,416v72h104v-72l14.624-14.624c6-6,9.376-14.144,9.376-22.624V368V360z"/>
<path style="fill:#EABD8C;" d="M368,360l95.496,23.872c0.272-1.688,0.504-3.392,0.504-5.128V368v-8H368z"/>
<path d="M248,224c4.408,0,8,3.584,8,8h16c0-10.416-6.712-19.216-16-22.528V192h-16v17.472c-9.288,3.312-16,12.112-16,22.528
	c0,13.232,10.768,24,24,24c4.408,0,8,3.584,8,8s-3.592,8-8,8s-8-3.584-8-8h-16c0,10.416,6.712,19.216,16,22.528V304h16v-17.472
	c9.288-3.312,16-12.112,16-22.528c0-13.232-10.768-24-24-24c-4.408,0-8-3.584-8-8S243.592,224,248,224z"/>
<path d="M496,128h-24v-8c0-13.232-10.768-24-24-24c-6.168,0-11.744,2.408-16,6.24c-4.256-3.84-9.832-6.24-16-6.24
	s-11.744,2.408-16,6.24c-4.256-3.84-9.832-6.24-16-6.24s-11.744,2.408-16,6.24c-4.256-3.84-9.832-6.24-16-6.24
	c-13.232,0-24,10.768-24,24v8H208v-10.744c0-10.688-4.16-20.736-11.712-28.288L184,76.688V0H64v76.688l-20.288,20.28
	C36.16,104.52,32,114.568,32,125.256V128H0v240h64v8c0,13.232,10.768,24,24,24c6.168,0,11.744-2.408,16-6.24
	c4.256,3.84,9.832,6.24,16,6.24s11.744-2.408,16-6.24c4.256,3.84,9.832,6.24,16,6.24s11.744-2.408,16-6.24
	c4.256,3.84,9.832,6.24,16,6.24c13.232,0,24-10.768,24-24v-8h88v2.744c0,10.688,4.16,20.736,11.712,28.288L328,419.312V496h120
	v-76.688l12.288-12.28c7.552-7.552,11.712-17.6,11.712-28.288V368h24V128z M448,112c4.408,0,8,3.584,8,8v8h-16v-8
	C440,115.584,443.592,112,448,112z M416,112c4.408,0,8,3.584,8,8v8h-16v-8C408,115.584,411.592,112,416,112z M384,112
	c4.408,0,8,3.584,8,8v8h-16v-8C376,115.584,379.592,112,384,112z M344,120c0-4.416,3.592-8,8-8s8,3.584,8,8v8h-16V120z M48,125.256
	c0-6.416,2.496-12.448,7.024-16.976L80,83.312V16h88v67.312l16.976,16.968c4.528,4.536,7.024,10.56,7.024,16.976V128h-80v-8H96v16
	c0,13.232-10.768,24-24,24h-8v72c0,4.416-3.592,8-8,8s-8-3.584-8-8V125.256z M88,384c-4.408,0-8-3.584-8-8v-8h16v8
	C96,380.416,92.408,384,88,384z M120,384c-4.408,0-8-3.584-8-8v-8h16v8C128,380.416,124.408,384,120,384z M152,384
	c-4.408,0-8-3.584-8-8v-8h16v8C160,380.416,156.408,384,152,384z M192,376c0,4.416-3.592,8-8,8s-8-3.584-8-8v-8h16V376z M296,301.56
	C282.768,313.424,265.88,320,248,320c-39.696,0-72-32.296-72-72s32.304-72,72-72c37.008,0,67.56,28.08,71.536,64.048
	C306.52,240.304,296,250.928,296,264V301.56z M456,378.744c0,6.416-2.496,12.448-7.024,16.976L432,412.688V480h-88v-67.312
	l-24.976-24.968c-4.528-4.536-7.024-10.56-7.024-16.976V264c0-4.416,3.592-8,8-8s8,3.584,8,8v72h8c13.232,0,24,10.768,24,24v16h16
	v-8h80V378.744z M480,352H375.12c-3.2-15.64-15.48-28.008-31.12-31.192V264c0-7.112-3.168-13.44-8.096-17.832
	C334.92,198.496,295.904,160,248,160c-48.52,0-88,39.48-88,88s39.48,88,88,88c17.28,0,33.832-4.976,48-14.232V352H16V144h16v88
	c0,13.232,10.768,24,24,24s24-10.768,24-24v-56.808C95.64,172,107.928,159.632,111.12,144H480V352z"/>
<polygon points="448,216 464,216 464,160 408,160 408,176 448,176 "/>
<polygon points="464,280 448,280 448,320 408,320 408,336 464,336 "/>
<polygon points="48,280 32,280 32,336 88,336 88,320 48,320 "/>
<g>
</g>
<g>
</g>
<g>
</g>
<g>
</g>
<g>
</g>
<g>
</g>
<g>
</g>
<g>
</g>
<g>
</g>
<g>
</g>
<g>
</g>
<g>
</g>
<g>
</g>
<g>
</g>
<g>
</g>
</svg>
